<mxfile host="app.diagrams.net" agent="Mozilla/5.0 (Macintosh; Intel Mac OS X 10_15_7) AppleWebKit/537.36 (KHTML, like Gecko) Chrome/127.0.0.0 Safari/537.36" version="24.7.7">
  <diagram name="第 1 页" id="K93AHKnS_Ff4_556Yq7D">
    <mxGraphModel dx="1853" dy="605" grid="1" gridSize="10" guides="1" tooltips="1" connect="1" arrows="1" fold="1" page="1" pageScale="1" pageWidth="827" pageHeight="1169" math="0" shadow="0">
      <root>
        <mxCell id="0" />
        <mxCell id="1" parent="0" />
        <mxCell id="9StfnSHRMmvTtnD-3Eys-3" value="" style="edgeStyle=orthogonalEdgeStyle;rounded=0;orthogonalLoop=1;jettySize=auto;html=1;" edge="1" parent="1" source="9StfnSHRMmvTtnD-3Eys-1" target="9StfnSHRMmvTtnD-3Eys-2">
          <mxGeometry relative="1" as="geometry" />
        </mxCell>
        <mxCell id="9StfnSHRMmvTtnD-3Eys-1" value="数电发票冲红" style="strokeWidth=2;html=1;shape=mxgraph.flowchart.start_1;whiteSpace=wrap;" vertex="1" parent="1">
          <mxGeometry y="280" width="100" height="60" as="geometry" />
        </mxCell>
        <mxCell id="9StfnSHRMmvTtnD-3Eys-5" value="" style="edgeStyle=orthogonalEdgeStyle;rounded=0;orthogonalLoop=1;jettySize=auto;html=1;" edge="1" parent="1" source="9StfnSHRMmvTtnD-3Eys-2" target="9StfnSHRMmvTtnD-3Eys-4">
          <mxGeometry relative="1" as="geometry" />
        </mxCell>
        <mxCell id="9StfnSHRMmvTtnD-3Eys-2" value="红字申请单申请&lt;div&gt;&lt;p style=&quot;margin: 0pt 0pt 0.0001pt; text-align: justify;&quot; class=&quot;MsoNormal&quot;&gt;&lt;font face=&quot;Calibri&quot;&gt;&lt;span style=&quot;font-size: 16px;&quot;&gt;ai.vat.redinvoice.apply&lt;/span&gt;&lt;/font&gt;&lt;br&gt;&lt;/p&gt;&lt;/div&gt;" style="whiteSpace=wrap;html=1;strokeWidth=2;" vertex="1" parent="1">
          <mxGeometry x="160" y="280" width="190" height="60" as="geometry" />
        </mxCell>
        <mxCell id="9StfnSHRMmvTtnD-3Eys-7" value="" style="edgeStyle=orthogonalEdgeStyle;rounded=0;orthogonalLoop=1;jettySize=auto;html=1;" edge="1" parent="1" source="9StfnSHRMmvTtnD-3Eys-4" target="9StfnSHRMmvTtnD-3Eys-6">
          <mxGeometry relative="1" as="geometry" />
        </mxCell>
        <mxCell id="9StfnSHRMmvTtnD-3Eys-4" value="红字申请单确认&lt;div&gt;ai.vat.redInfo.confirm&lt;br&gt;&lt;/div&gt;" style="whiteSpace=wrap;html=1;strokeWidth=2;" vertex="1" parent="1">
          <mxGeometry x="430" y="280" width="120" height="60" as="geometry" />
        </mxCell>
        <mxCell id="9StfnSHRMmvTtnD-3Eys-6" value="发票开具&lt;div&gt;&lt;p style=&quot;margin: 0pt 0pt 0.0001pt; text-align: justify; font-family: Calibri; font-size: 12pt;&quot; class=&quot;MsoNormal&quot;&gt;&lt;span style=&quot;font-family: 宋体; font-size: 12pt;&quot;&gt;&lt;font face=&quot;Calibri&quot;&gt;digital.electronic.invoice.create&lt;/font&gt;&lt;/span&gt;&lt;span style=&quot;font-size: 12pt;&quot;&gt;&lt;/span&gt;&lt;/p&gt;&lt;/div&gt;" style="whiteSpace=wrap;html=1;strokeWidth=2;" vertex="1" parent="1">
          <mxGeometry x="620" y="280" width="250" height="60" as="geometry" />
        </mxCell>
      </root>
    </mxGraphModel>
  </diagram>
</mxfile>
